@startuml
'https://plantuml.com/class-diagram
'left to right direction
!theme carbon-gray
!pragma useIntermediatePackages false

package de.darthkali.archunitpayground{
    package controller{
        class ControllerOne
        class ControllerTwo
    }

    package service{
        class ServiceOne
        class ServiceTwo
    }

    package persistence{
        class DatabaseManager
    }
}

ControllerOne --> ServiceOne
ControllerTwo --> ServiceTwo
ServiceOne --> DatabaseManager
ServiceTwo --> DatabaseManager

@enduml

